<svg width="238" height="65" viewBox="0 0 238 65" fill="none" xmlns="http://www.w3.org/2000/svg">
<path d="M100.186 15.1229C101.086 15.1229 101.836 15.0929 102.436 15.0329V15.6329C101.316 15.8929 100.526 16.7629 100.066 18.2429L94.3963 36.4229H94.1563H93.9163L88.6963 20.9729L83.9263 36.4229H83.6863H83.4463L77.0863 17.5529C76.6663 16.3129 75.9763 15.6729 75.0163 15.6329V15.0329C75.8363 15.0929 76.9063 15.1229 78.2263 15.1229C79.6663 15.1229 80.7463 15.0929 81.4663 15.0329V15.6329C80.9263 15.6729 80.5463 15.7729 80.3263 15.9329C80.1063 16.0929 79.9963 16.3429 79.9963 16.6829C79.9963 17.0029 80.1063 17.4929 80.3263 18.1529L84.7063 31.5329L88.3663 19.9229L87.5563 17.5529C87.1563 16.3129 86.5663 15.6729 85.7863 15.6329V15.0329C86.5063 15.0929 87.4763 15.1229 88.6963 15.1229C90.4163 15.1229 91.6963 15.0929 92.5363 15.0329V15.6329C91.7763 15.6729 91.2463 15.7629 90.9463 15.9029C90.6463 16.0229 90.4963 16.2929 90.4963 16.7129C90.4963 17.0729 90.5963 17.5529 90.7963 18.1529L95.1163 31.5029L98.8063 19.8929C99.1263 18.9129 99.2863 18.1029 99.2863 17.4629C99.2863 16.8029 99.0863 16.3429 98.6863 16.0829C98.2863 15.8029 97.6363 15.6529 96.7363 15.6329V15.0329C97.8763 15.0929 99.0263 15.1229 100.186 15.1229ZM106.18 36.4829C104.92 36.4829 103.98 36.1729 103.36 35.5529C102.76 34.9129 102.46 34.0329 102.46 32.9129C102.46 32.0129 102.7 31.2729 103.18 30.6929C103.68 30.1129 104.26 29.6529 104.92 29.3129C105.6 28.9729 106.49 28.6129 107.59 28.2329C108.71 27.8529 109.54 27.5029 110.08 27.1829C110.62 26.8629 110.89 26.4329 110.89 25.8929V24.0329C110.89 22.8729 110.64 22.0829 110.14 21.6629C109.66 21.2229 108.98 21.0029 108.1 21.0029C106.7 21.0029 105.71 21.3629 105.13 22.0829C105.53 22.1829 105.86 22.3929 106.12 22.7129C106.4 23.0329 106.54 23.4329 106.54 23.9129C106.54 24.4129 106.38 24.8129 106.06 25.1129C105.74 25.3929 105.33 25.5329 104.83 25.5329C104.27 25.5329 103.85 25.3629 103.57 25.0229C103.29 24.6629 103.15 24.2329 103.15 23.7329C103.15 23.2529 103.26 22.8529 103.48 22.5329C103.72 22.2129 104.07 21.8929 104.53 21.5729C105.01 21.2329 105.62 20.9529 106.36 20.7329C107.1 20.5129 107.91 20.4029 108.79 20.4029C110.35 20.4029 111.53 20.7729 112.33 21.5129C112.83 21.9729 113.16 22.5329 113.32 23.1929C113.5 23.8329 113.59 24.6829 113.59 25.7429V34.0829C113.59 34.5829 113.66 34.9429 113.8 35.1629C113.94 35.3829 114.18 35.4929 114.52 35.4929C114.76 35.4929 114.98 35.4429 115.18 35.3429C115.4 35.2229 115.63 35.0629 115.87 34.8629L116.2 35.3729C115.68 35.7729 115.23 36.0629 114.85 36.2429C114.49 36.4029 114.03 36.4829 113.47 36.4829C112.51 36.4829 111.84 36.2429 111.46 35.7629C111.08 35.2829 110.89 34.6329 110.89 33.8129C110.29 34.8129 109.6 35.5129 108.82 35.9129C108.04 36.2929 107.16 36.4829 106.18 36.4829ZM107.5 35.2829C108.82 35.2829 109.95 34.5229 110.89 33.0029V27.1229C110.71 27.4029 110.46 27.6329 110.14 27.8129C109.82 27.9929 109.33 28.2329 108.67 28.5329C107.91 28.8529 107.29 29.1629 106.81 29.4629C106.35 29.7429 105.95 30.1329 105.61 30.6329C105.27 31.1329 105.1 31.7729 105.1 32.5529C105.1 33.4529 105.32 34.1329 105.76 34.5929C106.2 35.0529 106.78 35.2829 107.5 35.2829ZM128.996 20.9129C129.876 20.9129 130.636 20.8829 131.276 20.8229V21.4229C130.876 21.4629 130.516 21.6429 130.196 21.9629C129.896 22.2829 129.606 22.8029 129.326 23.5229L124.406 36.4229L123.386 39.0329C123.006 40.0129 122.576 40.7129 122.096 41.1329C121.796 41.4129 121.436 41.6129 121.016 41.7329C120.596 41.8529 120.176 41.9129 119.756 41.9129C119.156 41.9129 118.666 41.7529 118.286 41.4329C117.906 41.1129 117.716 40.6729 117.716 40.1129C117.716 39.6329 117.856 39.2429 118.136 38.9429C118.416 38.6629 118.806 38.5229 119.306 38.5229C119.746 38.5229 120.106 38.6429 120.386 38.8829C120.686 39.1429 120.836 39.4929 120.836 39.9329C120.836 40.5329 120.566 40.9829 120.026 41.2829C120.066 41.3029 120.126 41.3129 120.206 41.3129C121.306 41.3129 122.156 40.5329 122.756 38.9729L123.806 36.2429L118.376 23.1329C118.036 22.4529 117.696 22.0029 117.356 21.7829C117.016 21.5629 116.676 21.4529 116.336 21.4529V20.8229C117.196 20.9429 118.176 21.0029 119.276 21.0029C120.276 21.0029 121.576 20.9429 123.176 20.8229V21.4529C122.456 21.4529 121.926 21.5129 121.586 21.6329C121.266 21.7529 121.106 22.0429 121.106 22.5029C121.106 22.9229 121.226 23.4129 121.466 23.9729L125.066 32.9129L128.396 24.2429C128.616 23.6429 128.726 23.1829 128.726 22.8629C128.726 22.4029 128.546 22.0629 128.186 21.8429C127.826 21.6229 127.256 21.4829 126.476 21.4229V20.8229C127.536 20.8829 128.376 20.9129 128.996 20.9129ZM140.08 20.4029C141.42 20.4029 142.58 20.7229 143.56 21.3629C144.5 21.9829 144.97 22.7529 144.97 23.6729C144.97 24.1929 144.82 24.6029 144.52 24.9029C144.22 25.2029 143.84 25.3529 143.38 25.3529C142.92 25.3529 142.53 25.2229 142.21 24.9629C141.89 24.6829 141.73 24.3129 141.73 23.8529C141.73 23.4329 141.85 23.0829 142.09 22.8029C142.33 22.5029 142.63 22.3029 142.99 22.2029C142.79 21.8429 142.43 21.5429 141.91 21.3029C141.41 21.0629 140.87 20.9429 140.29 20.9429C139.55 20.9429 138.86 21.1829 138.22 21.6629C137.58 22.1229 137.05 22.9029 136.63 24.0029C136.21 25.0829 136 26.5129 136 28.2929C136 30.7729 136.4 32.5829 137.2 33.7229C138 34.8429 139.04 35.4029 140.32 35.4029C141.18 35.4029 141.99 35.1529 142.75 34.6529C143.53 34.1529 144.17 33.3729 144.67 32.3129L145.24 32.5229C144.9 33.6629 144.26 34.6429 143.32 35.4629C142.4 36.2829 141.2 36.6929 139.72 36.6929C138.48 36.6929 137.35 36.3729 136.33 35.7329C135.33 35.0929 134.54 34.1729 133.96 32.9729C133.38 31.7529 133.09 30.3429 133.09 28.7429C133.09 27.1229 133.38 25.6829 133.96 24.4229C134.56 23.1629 135.39 22.1829 136.45 21.4829C137.51 20.7629 138.72 20.4029 140.08 20.4029ZM154.919 20.4029C156.959 20.4029 158.599 21.0829 159.839 22.4429C161.099 23.7829 161.729 25.8229 161.729 28.5629C161.729 31.3029 161.099 33.3429 159.839 34.6829C158.599 36.0229 156.959 36.6929 154.919 36.6929C152.879 36.6929 151.229 36.0229 149.969 34.6829C148.729 33.3429 148.109 31.3029 148.109 28.5629C148.109 25.8229 148.729 23.7829 149.969 22.4429C151.229 21.0829 152.879 20.4029 154.919 20.4029ZM154.919 21.0029C153.719 21.0029 152.769 21.6229 152.069 22.8629C151.369 24.0829 151.019 25.9829 151.019 28.5629C151.019 31.1429 151.369 33.0429 152.069 34.2629C152.769 35.4829 153.719 36.0929 154.919 36.0929C156.119 36.0929 157.069 35.4829 157.769 34.2629C158.469 33.0429 158.819 31.1429 158.819 28.5629C158.819 25.9829 158.469 24.0829 157.769 22.8629C157.069 21.6229 156.119 21.0029 154.919 21.0029ZM171.755 20.4029C173.795 20.4029 175.435 21.0829 176.675 22.4429C177.935 23.7829 178.565 25.8229 178.565 28.5629C178.565 31.3029 177.935 33.3429 176.675 34.6829C175.435 36.0229 173.795 36.6929 171.755 36.6929C169.715 36.6929 168.065 36.0229 166.805 34.6829C165.565 33.3429 164.945 31.3029 164.945 28.5629C164.945 25.8229 165.565 23.7829 166.805 22.4429C168.065 21.0829 169.715 20.4029 171.755 20.4029ZM171.755 21.0029C170.555 21.0029 169.605 21.6229 168.905 22.8629C168.205 24.0829 167.855 25.9829 167.855 28.5629C167.855 31.1429 168.205 33.0429 168.905 34.2629C169.605 35.4829 170.555 36.0929 171.755 36.0929C172.955 36.0929 173.905 35.4829 174.605 34.2629C175.305 33.0429 175.655 31.1429 175.655 28.5629C175.655 25.9829 175.305 24.0829 174.605 22.8629C173.905 21.6229 172.955 21.0029 171.755 21.0029ZM185.717 33.4829C185.717 34.3029 185.887 34.8729 186.227 35.1929C186.567 35.4929 187.157 35.6429 187.997 35.6429V36.2729C186.157 36.1929 184.947 36.1529 184.367 36.1529C183.787 36.1529 182.577 36.1929 180.737 36.2729V35.6429C181.577 35.6429 182.167 35.4929 182.507 35.1929C182.847 34.8729 183.017 34.3029 183.017 33.4829V16.3529C183.017 15.4329 182.847 14.7629 182.507 14.3429C182.167 13.9229 181.577 13.7129 180.737 13.7129V13.0829C181.357 13.1429 181.977 13.1729 182.597 13.1729C183.857 13.1729 184.897 13.0329 185.717 12.7529V33.4829Z" fill="white"/>
<path d="M17.4694 17.6262C17.4694 17.6262 7.02336 8.62396 0.615234 6.94858V35.8623C0.615234 35.8623 0.715603 48.1768 14.219 51.4349H21.1135C21.1135 51.4349 12.0495 37.9315 17.4694 17.6262Z" fill="white"/>
<path d="M44.677 19.1472C34.1306 30.5969 32.2236 50.3462 32.2236 50.3462C32.2236 50.3462 28.9424 30.0333 43.8509 16.4758C41.3571 9.31108 37.2652 3.48973 32.2236 0C23.7773 5.8368 17.9636 18.1975 17.9636 32.4961C17.9636 46.7948 23.7773 59.1632 32.2236 65C36.5626 61.9967 40.199 57.2794 42.716 51.4349H48.4292C61.9635 49.1959 63.8319 34.8741 63.8319 34.8741V6.35408C53.3164 9.78976 47.3097 15.8582 44.677 19.1472Z" fill="white"/>
</svg>